<svg xmlns="http://www.w3.org/2000/svg" viewBox="0 0 480.89 343.79"><defs><style>.cls-1{fill:#060606;}.cls-2{fill:#0b0b0b;}.cls-3{fill:#222321;}.cls-4{fill:#e5be70;}.cls-5{fill:#a1d7ed;}</style></defs><g id="Layer_1" data-name="Layer 1"><path class="cls-1" d="M163.68,228.45l.26-2.62c5.27-.53,3.25-4.62,3.65-7.5s-1-3.88-3.64-3.75l-.27-2.63a3.23,3.23,0,0,0,2.71-5.09c-2.87-4.09-1-8.84-2.81-13-2.1-5-2.66-10.63-6.91-14.64a7.59,7.59,0,0,1-2.08-6.45l0,0c9.07,3,10.75,12.11,14.11,19.06a65.05,65.05,0,0,1,6.85,30.67c-.1,2.77,1.39,3.42,3.69,3.39a18.25,18.25,0,0,1,0,7.75c-3.28-.24-3.86,1.7-3.64,4.4.51,6.15.24,12.5-1.59,18.16-3.85,11.88-5.6,24.35-10.71,35.91-1.34,3,.9,7.55-1.65,11l-1.9,2.7c-1.9-1.14-2.92.36-3.44,1.58-.62,1.45,1,1.23,1.84,1.51-11.62,21.36-24.69,41.55-46.53,54-14.6,8.31-30.56,12.81-47.23,14.5-5.06.52-10.42.84-14.67-3.12-6.47-6-6.54-17.89.08-25.28,2.62-2.92,5.73-5.41,9.37-8.8-4.78-1.13-8.35-.5-11.85-.44S43,338,44.08,335.29a63.07,63.07,0,0,1,4.49-8.87c16.62-27.83,30.62-56.92,43.05-86.85,7.69-18.52,16.38-36.63,24.64-54.91a44.38,44.38,0,0,1,2.14-3.95c3.63-6.36,6.11-7.76,10.81-6.14,5.68,2,8.1,5.91,7.12,12.48-3.38,22.61-9.69,44.35-20.22,64.72-11.35,22-22.07,44.3-35.82,64.94-1,1.49-1.59,3.34-3.5,4-4,.62-4.55,4.29-5.69,7-.6,1.42.44,3.81,3,4.2,2.76.41,2.32-1.53,2.49-3.09a.64.64,0,0,1,.77-.31c4.15,1,11-2.54,13.22-6.9a30,30,0,0,1,8-3.3c.19.71,0,1.95,1.18,1.6,1-.29.5-1.35.39-2.11l1.58-.86,4.83,1.68h0l.12,2.92a14.62,14.62,0,0,1-5.92,3.17c-3.15-1.47-5.1-.86-5.17,3l-1.9,1.31c-.25-2.05-1-2.63-2.84-1.19-5.65,4.46-11.35,8.85-17.05,13.23-1.44,1.11-.91,2.26-.27,3.47-3.19,4-7.78,6.89-9.56,12-.65,1.87-1.42,4,.08,5.72,1.63,1.87,3.81.81,5.62.18a84.5,84.5,0,0,0,24.88-13.3c10.51-8.33,18.81-18.74,27.7-28.6,3.85.36,4.84-1.17,3-4.56l.18-.32c2.1-2.67-.54-5.16-.3-7.76l2.5-.83c0,1,.32,2.71,1.15,2.26,2.5-1.34,5.56-2,7.16-4.68.67-1.11,0-1.84-1.12-2.25l1.45-1.83a3.44,3.44,0,0,0,3.73-1.71c1.8-2.6,2.36-6,4.08-8.24,7.17-9.23,10.52-20.22,15.33-30.54,1-2,.91-4.18,1.53-6.21s-.8-2.15-2.16-2.33c.36-1.42.71-2.85,1.07-4.27,1-.4,1.64,3.44,3,.09a71.32,71.32,0,0,0,3.67-15.26C166.89,230,166,228.59,163.68,228.45Z" transform="translate(-43.65 -34.83)"/><path class="cls-1" d="M367.72,333c-4.61,2.78-9.65,2-14.47,1.2-2.77-.43-4-3.18-4.76-5.88-2.34-8.78-1.36-17.69.35-26.23,9.48-47.41,29.67-90.46,54.63-131.49a50.57,50.57,0,0,1,3.92-5.14c5.44-6.81,9.3-7.71,15.6-3.67,7.52,4.82,8.83,8.81,4.65,16.69-9,17-17.58,34.27-25.19,52-12.55,29.23-24.25,58.8-35.68,88.49-.83,2.14-1,4.53-1.48,6.81,1.2,3,2,3.37,4.56,1.7s4.57-3.71,7-5.28c3.88-2.46,6.09-7,10.69-8.53h0c0,1.92-1.42,2.94-2.6,4.07-5,4.79-10.15,9.49-16.37,12.67C367,331.25,367.25,331.89,367.72,333Z" transform="translate(-43.65 -34.83)"/><path class="cls-2" d="M161.64,303c2.55-3.44.31-8,1.65-11,5.11-11.56,6.86-24,10.71-35.91,1.83-5.66,2.1-12,1.59-18.16-.22-2.7.36-4.64,3.64-4.4-.33,19.95-4.89,39-12.45,57.38-.53,1.3-2.11,2.69-.94,4.06s2.85-.15,4.06-.5c8.15-2.39,17-2.5,24.15-8.34,2.92-2.38,7.4-1.53,10.7.73,3.76,2.57,3.05,6.19,1.49,9.78-2.4,5.56-4.8,11.12-7.21,16.72,1.64.8,2.57-.3,3.61-1.48,6-6.82,10-14.77,13.35-23.15.93-2.32,0-2.94-1.71-3.57-.78-.28-1.55-.57-2.31-.91-4.63-2-8.34-4.73-8.65-10.44-.32-6.21,3.24-9.9,8.09-12.58,6.58-3.63,12.29-.06,12.34,7.49,0,4.31-.3,8.65.91,12.88-2.18.12-4.37.25-4-3,1.39-1.31,1.42-2.62,0-3.93l0-2.07c-.23-1.43.69-3.27-1.44-4-1-1,.24-3.4-1.82-3.62-1.38-.14-2.21,1.33-3.05,2.33-4.72,5.61-3.93,8.09,3.87,12.19,1.86,1.2.16,2.3-.17,3.37-.56,1.79-.58,3.31,1.42,4.12s3.49-.07,4.23-2.08c.39-1.08.67-2.21,1-3.31a38.57,38.57,0,0,0,14.64,2.44c3.42-.11,6.14-.85,7.94-4,2-3.54,4.94-5.27,9.12-3.78a7.62,7.62,0,0,1,5.27,8.64c-.87,6.07,1.45,5.54,5.44,3.57a18.06,18.06,0,0,1,5.19-1.59c3.64-.57,6.18,1.89,5.83,5.57-.24,2.64-.77,5.25-1.06,7.89-.54,5,1,6,5.73,4.08a44.8,44.8,0,0,0,13.64-9c2.56-2.37,5.2-4.66,7.82-7a2.12,2.12,0,0,1,3.12,0,2.37,2.37,0,0,1,.83,3c-3.27,8.73-23.21,21-32.91,20.19-7.16-.62-9.79-4-9-11.24.19-1.71.79-3.51-.29-5.88a59.66,59.66,0,0,0-11.66,11.55c-1.66,2.28-3.11,4.71-4.69,7.05A14.55,14.55,0,0,1,230,317.78c-1.76-1-1.08-2-.81-3.3,1.69-8.08,5.7-15.16,9.62-22.28.54-1,1.18-1.92,2-3.23l-14.94-1.92c-2.89-.36-2.77,2.11-3,3.64-1.74,11.66-6.74,22.1-11.82,32.54-2.33,4.78-6,7-11.26,7.72a55.61,55.61,0,0,1-13.41-.35c-7.24-.81-11.33-6.67-10-13.83a36.87,36.87,0,0,1,3.22-9.91c1.45-2.92,2.93-5.81,4.92-9.74Zm59.9-36.84-.45-.74c-.14.25-.37.5-.37.75s.26.5.4.75Z" transform="translate(-43.65 -34.83)"/><path class="cls-1" d="M411.62,278.83c8.68-12.53,17.44-25,24.43-38.6,2.12-4.12,3.85-8.43,6-12.55,2.81-5.42,7.57-6.7,13-3.64a40.43,40.43,0,0,1,4.58,3c7.36,5.65,8.38,8.9,4.54,17.84-4.63,10.81-9.86,21.36-14.57,32.13-6.64,15.17-11.25,31.1-16.83,46.66-.67.32-1.21.87-.59,1.48.85.84,1.77.54,2.45-.41l.85-.48c.41,1.84,2.65.82,3.31,1.91.09,2.84-5.4,2.94-2.81,6.66-1.55,2.1-3.92,2.77-6.2,3.62-.17-.88,0-2.32-1.18-2.18-1.39.16-1.65,1.71-2,2.94a29,29,0,0,1-10.37.38c-6.13-.6-8.93-4.43-8.59-12.24a107.09,107.09,0,0,1,7.68-35.63l2.8-.53a27.71,27.71,0,0,0-2-3.78c-.64-.88-1.4,0-2.1.32-1.45.7-2.94,1.31-4.42,2C409.74,284.62,413.14,282.29,411.62,278.83Z" transform="translate(-43.65 -34.83)"/><path class="cls-3" d="M278,230.57c-14.94-.51-30-.57-44.55-4.38-26.05-6.81-43.5-23.58-55-47.49-8.76-18.14-8.83-36.7-5.25-55.91,2.67-14.29,6.45-28.13,13.71-40.8A82.47,82.47,0,0,1,234.1,43.47c32.59-10.64,65.51-12,98.31-1,24.52,8.24,41.94,24.75,51.87,48.51,12.92,30.9,12.93,62.09-.93,92.73-10.6,23.42-30.1,36-54.4,42A183.48,183.48,0,0,1,278,230.57Zm68.56-15.79c10.88-4,19.19-11.42,25.57-20.65,18.2-26.34,21.64-55.49,13.79-85.89C378.44,79.3,362.15,56.85,333.27,46c-29.92-11.26-60.8-10-90.94-2.09-34.87,9.2-55.75,33.21-64.59,68.13-5.62,22.18-7.38,43.85,3.32,65.18,12.31,24.56,30.93,41.59,58.35,46.2,26.52,4.46,53.39,5.12,80.06.16,9.38-1.75,18.88-3.55,27.16-8.86Z" transform="translate(-43.65 -34.83)"/><path class="cls-1" d="M467.61,347.77c-5.53,4.61-12.12,5.33-18.94,5-7.57-.42-9-3.28-5.27-10.14a8.44,8.44,0,0,0,1.25-1.9l3.24-3.43c3.24.38,4.7-1,4.23-4.29a27.2,27.2,0,0,1,6.69-5.87c4.72.37,7.18-1.87,7.54-6.89.31-1.15.61-2.3.91-3.46,1.52.93.48-5,3.08-1.17,1.08-3.4-.83-5.35-3.45-6.95-.1-1.71-.19-3.42-.29-5.13s-1-1.85-2.25-.86c-1.73.25-3.11-.77-4.64-1.25l1.74-1.76c4.92-.57,5.41-1.13,3.65-4.15l.56-3.83a2.49,2.49,0,0,0,0-3.93,5.79,5.79,0,0,1,.46-4c5.26-1,2.25-4.64,2.32-7.29,3.46-6.67,9.81-7.84,16.35-8.26a56.07,56.07,0,0,1,9.38.71,7,7,0,0,1,6.31,5.53c.56,2.63-2.65,3.09-4.38,3.92-5,2.34-8.25,5.81-9.25,11.28-1.66.78-1.68,1.81-.48,3l.11,14.22c.08,1.88-.11,3.88,2.1,4.83-2.9,2.34-3.61,5.67-4.25,9.1-1.21,6.52-3.19,12.75-7.64,17.91-.94.05-2.11-.29-2.58.81-.31.7.44,1.1,1.06,1.36a15.61,15.61,0,0,1-5,5.11C468.66,345.63,467.71,346.1,467.61,347.77Zm-13.36-8.64c-2.88,3.09-6.22,7.06-3.95,7.27,7.94-3.3,12.74-9.14,11.6-16.48Zm15.22-33.92c-.13-.26-.26-.51-.38-.76-.14.24-.39.47-.4.71s.21.51.33.76Zm-25.36,39.08c0,.24-.05.48-.07.73.09-.12.25-.22.26-.35S444.18,344.42,444.11,344.29Z" transform="translate(-43.65 -34.83)"/><path class="cls-2" d="M179.27,225.83c-2.3,0-3.79-.62-3.69-3.39a65.05,65.05,0,0,0-6.85-30.67c-3.36-7-5-16-14.11-19.06a2.66,2.66,0,0,0-3.37-2.46c-.2,0-.53.91-.4,1.24.72,1.86,2.43,1,3.74,1.24a7.59,7.59,0,0,0,2.08,6.45c4.25,4,4.81,9.65,6.91,14.64,1.77,4.2-.06,9,2.81,13a3.23,3.23,0,0,1-2.71,5.09c-1.08-8.89-2.07-17.84-6.2-26-9.18-18-21.91-25.49-41.45-20.07-27.54,7.64-50.06,23.2-67.92,45.5-.87,1.09-1.51,3.24-3.22,2.26-1.5-.85-.54-2.68,0-4,3.79-9.05,10.78-15.51,17.91-21.77,15.46-13.57,32.92-23.26,53.15-28,24.8-5.81,47.79,7.81,55.72,30.17a100.81,100.81,0,0,1,4.53,14.71c-.61.13-1.32.25-1.26,1.05s.79.83,1.4.93C178.71,212.87,178.63,219.4,179.27,225.83Z" transform="translate(-43.65 -34.83)"/><path class="cls-3" d="M244.32,364.87c0-3.33-.07-6.65,0-10,.16-5.44,4.43-8.49,9.49-6.56a6.11,6.11,0,0,0,5.07-.05,6.9,6.9,0,0,1,9.75,6c.37,7.3.12,14.62.13,21.94,0,1.22-.06,2.4-1.74,2.4s-1.6-1.2-1.6-2.41c0-6.32,0-12.64,0-18.95,0-2.77.09-6-3.34-6.2-3.78-.19-4,3.28-4.1,6.15-.12,6-.07,12-.17,18,0,1.29.94,3.47-1.57,3.35-2.16-.11-1.63-2.13-1.64-3.53,0-6.16-.11-12.31,0-18.46.06-2.79-.41-5.43-3.5-5.52-3.56-.1-3.81,2.85-3.77,5.72.07,6.15,0,12.3,0,18.46,0,1.35.56,3.45-1.76,3.35-2-.09-1.26-2-1.29-3.19C244.26,371.85,244.32,368.36,244.32,364.87Z" transform="translate(-43.65 -34.83)"/><path class="cls-2" d="M411.62,278.83c1.52,3.46-1.88,5.79-2.05,8.85h0c-3.09.24-3.83,2.83-5,5h0a2,2,0,0,0-1,2h0c-2,.1-2,1.54-2,3-4.55,2.35-4.73,3.41-1,6C393.39,314.45,384,323,373.6,330.54c-1.7,1.22-3.56,2.5-5.88,2.48-.47-1.13-.73-1.77.89-2.6,6.22-3.18,11.35-7.88,16.37-12.67,1.18-1.13,2.62-2.15,2.6-4.07a1.84,1.84,0,0,0,2-2l1-1c2.07-.28,3.43-1.2,3.66-4.11-2.3,1-3.55,2.06-3.67,4.1l-1,1a1.84,1.84,0,0,0-2,2c-4.6,1.54-6.81,6.07-10.69,8.53-2.46,1.57-4.59,3.67-7,5.28s-3.36,1.25-4.56-1.7c3.06.49,4.8-1.92,6.9-3.33,14.49-9.7,24.13-23.92,34.55-37.4C408.36,283,410,280.91,411.62,278.83Z" transform="translate(-43.65 -34.83)"/><path class="cls-3" d="M316.64,365.85c0,3.49,0,7,0,10.47,0,1,.1,2.08-1.3,2.24-1.8.2-1.74-1.11-1.76-2.28,0-1.83,0-3.65,0-5.48,0-2.75.78-5.4-3.94-5.37-4.54,0-3.66,2.6-3.69,5.13,0,1.5.12,3,0,4.48-.14,1.29.91,3.57-1.49,3.43-2-.11-1.49-2.24-1.5-3.65-.06-6.31-.16-12.63,0-18.95.1-5.09,2.86-8.2,6.84-8.16s6.83,3.49,6.95,8.16c.07,3.33,0,6.65,0,10ZM313.27,359c0-3.82.18-7.36-3.62-7.42-4.17-.07-3.13,3.74-3.37,6.4s-.15,4.69,3.71,4.62S313.34,360.38,313.27,359Z" transform="translate(-43.65 -34.83)"/><path class="cls-3" d="M328.48,365c0-3.49-.14-7,0-10.48.2-4,2.49-6.54,6.51-6.72s6.38,2.55,6.58,6.12c.4,7.46.16,15,.18,22.45,0,1,0,2.13-1.4,2.16-1.7,0-1.65-1.31-1.66-2.47,0-6.32-.06-12.64,0-19,0-2.85-.24-6-3.61-6s-3.64,3.09-3.6,5.94c.08,6.15,0,12.31,0,18.46,0,1.26.35,3-1.61,3-2.16,0-1.37-1.89-1.4-3C328.42,372,328.48,368.47,328.48,365Z" transform="translate(-43.65 -34.83)"/><path class="cls-3" d="M218.64,362.76c0-2.66-.14-5.32,0-8,.28-4,3.51-7.32,6.95-7,3.88.39,6.66,2.61,6.82,6.64.25,6,.12,11.93-.11,17.89-.16,3.94-2.73,5.95-6.51,6.09-4.18.15-6.48-2.49-7.05-6.25-.47-3.08-.1-6.29-.1-9.43Zm10.47.87h-.05c0-2.82,0-5.65,0-8.48,0-2.14-1.15-3.54-3.27-3.65s-3.08,1.32-3.39,3.44c-.82,5.48-.28,10.94,0,16.41.11,2.08,1,3.79,3.13,3.75s3.54-1.64,3.57-4S229.11,366.13,229.11,363.63Z" transform="translate(-43.65 -34.83)"/><path class="cls-2" d="M459.71,301.39c1.53.48,2.91,1.5,4.64,1.25a3.71,3.71,0,0,0,.18.73,176.46,176.46,0,0,1-28.62,29.45c-2.59-3.72,2.9-3.82,2.81-6.66-.66-1.09-2.9-.07-3.31-1.91,9.54-4.64,15.4-13.25,22.3-20.74C458.37,302.8,459,302.1,459.71,301.39Z" transform="translate(-43.65 -34.83)"/><path class="cls-1" d="M488.6,311.69c-2.21-.95-2-2.95-2.1-4.83,6.43-1.95,11.73-6,17.44-9.34a75,75,0,0,1,15.81-7.17c1.66-.5,3.9-1.81,4.68.69.64,2.07-1.51,3.11-3.22,3.75C512,298.25,503.53,303.16,495,308Z" transform="translate(-43.65 -34.83)"/><path class="cls-3" d="M194.48,363.06c0-2.82-.07-5.65,0-8.46.14-4.23,2.84-6.3,6.62-6.73,3.28-.38,6.57,3.67,6.49,7.44,0,.93.27,2.16-1.18,2.26-1.15.07-1.68-.71-2-1.8-.61-2.12-.69-4.95-4.13-4.23s-2.69,3.64-2.71,6c0,4.15,0,8.3,0,12.45,0,2.47.41,5.05,3.2,5.37s3.33-2.26,3.59-4.43c.16-1.31.35-2.38,1.91-2.24,1.77.16,1.3,1.61,1.3,2.68,0,3.64-3,7-6.27,7.13-3.52.11-6.67-3.07-6.8-7-.1-2.82,0-5.64,0-8.46Z" transform="translate(-43.65 -34.83)"/><path class="cls-3" d="M279.73,362.72c0-4,0-8,0-12,0-1.37,0-2.53,1.77-3,5.4-1.57,10.71,1.15,11.81,6.23,1.28,5.89-1.57,10.1-7.64,10.68-2.55.25-3,1.38-2.91,3.51.11,2.66,0,5.33,0,8,0,1.16.12,2.56-1.64,2.4-1.26-.12-1.31-1.29-1.36-2.3,0-.17,0-.34,0-.5v-13Zm3.15-6.76c1.17,1.74-1.83,5.43,2.68,5.5,3.39.06,4.52-2.35,4.52-5.26s-1.63-5.08-4.77-5.11C281.47,351.06,283.83,354.28,282.88,356Z" transform="translate(-43.65 -34.83)"/><path class="cls-3" d="M366.65,354.15c0,3.83.1,7.43-3.81,10.11-2.81,1.92-.66,5.62-1.29,8.43-.45,2,1.51,5.63-1.8,5.55-2.57-.07-1.12-3.62-1.13-5.53,0-4.23-.38-7.71-4.07-11S353,353.27,353,348.88a1.4,1.4,0,0,1,1.91-1.07,1.8,1.8,0,0,1,1.2,2,26,26,0,0,0,.06,7.42c.4,2.35,1.1,4.48,3.82,4.28,2.5-.19,3.58-2.08,3.51-4.59a33.07,33.07,0,0,1,.06-5c.18-1.43-1.14-4,1.39-4,3.07-.06,1.21,2.76,1.68,4.24A6.62,6.62,0,0,1,366.65,354.15Z" transform="translate(-43.65 -34.83)"/><path class="cls-2" d="M158.85,251.55c1.36.18,2.78.27,2.16,2.33s-.58,4.18-1.53,6.21c-4.81,10.32-8.16,21.31-15.33,30.54-1.72,2.22-2.28,5.64-4.08,8.24a3.44,3.44,0,0,1-3.73,1.71c6.65-12.19,13.67-24.2,18.34-37.36C156.06,259.33,157.46,255.44,158.85,251.55Z" transform="translate(-43.65 -34.83)"/><path class="cls-2" d="M125.2,307.91c-.24,2.6,2.4,5.09.3,7.76-1.32-2.39-2.75-.66-4.13-.1q-7.34,3-14.64,6l-.12-2.92c.34-.26,1.38.45,1-.75l-1,.75L101.78,317Z" transform="translate(-43.65 -34.83)"/><path class="cls-2" d="M163.68,228.45c2.34.14,3.21,1.55,2.88,3.66a71.32,71.32,0,0,1-3.67,15.26c-1.33,3.35-2-.49-3-.09A137.3,137.3,0,0,0,163.68,228.45Z" transform="translate(-43.65 -34.83)"/><path class="cls-2" d="M409.57,287.68c1.48-.65,3-1.26,4.42-2,.7-.34,1.46-1.2,2.1-.32a27.71,27.71,0,0,1,2,3.78l-2.8.53c.1-3.83-1.49-2.45-2.84-.83-3.09,3.66-6.05,7.43-9.06,11.16a2.49,2.49,0,0,1-1.8-2.36,3,3,0,0,0,2-3h0a2,2,0,0,0,1-2h0c3.69.35,3.62-3.05,5-5Z" transform="translate(-43.65 -34.83)"/><path class="cls-3" d="M382.84,365.24c-1.76-1.12-5.27,1.38-5.27-1.75,0-3.45,3.57-1.57,5.47-1.64s5.31-1.54,5.3,1.42C388.31,366.77,384.58,364,382.84,365.24Z" transform="translate(-43.65 -34.83)"/><path class="cls-3" d="M178.11,365.22c-1.59-1.38-5.44,1.65-5.3-2.1.1-2.82,3.58-1.31,5.45-1.29s5.74-1.44,5.75,1.44C184,366.48,180.21,364.26,178.11,365.22Z" transform="translate(-43.65 -34.83)"/><path class="cls-2" d="M164,214.58c2.63-.13,4,1,3.64,3.75s1.62,7-3.65,7.5Z" transform="translate(-43.65 -34.83)"/><path class="cls-2" d="M90.61,321.66c-2.24,4.36-9.07,7.93-13.22,6.9A45.34,45.34,0,0,1,90.61,321.66Z" transform="translate(-43.65 -34.83)"/><path class="cls-2" d="M76.62,328.87c-.17,1.56.27,3.5-2.49,3.09-2.59-.39-3.63-2.78-3-4.2,1.14-2.73,1.72-6.4,5.69-7-.08,3.57-3.69,5.53-4.22,9C74.26,330.57,75.27,328.91,76.62,328.87Z" transform="translate(-43.65 -34.83)"/><path class="cls-2" d="M134.89,302.41c1.08.41,1.79,1.14,1.12,2.25-1.6,2.67-4.66,3.34-7.16,4.68-.83.45-1.16-1.25-1.15-2.26C130.2,305.69,133.15,305,134.89,302.41Z" transform="translate(-43.65 -34.83)"/><path class="cls-1" d="M466.89,308.63c2.62,1.6,4.53,3.55,3.45,6.95-2.6-3.87-1.56,2.1-3.08,1.17Z" transform="translate(-43.65 -34.83)"/><path class="cls-1" d="M466.35,320.21c-.36,5-2.82,7.26-7.54,6.89Z" transform="translate(-43.65 -34.83)"/><path class="cls-1" d="M401.58,297.68a2.49,2.49,0,0,0,1.8,2.36,7.17,7.17,0,0,1-2.83,3.63C396.85,301.09,397,300,401.58,297.68Z" transform="translate(-43.65 -34.83)"/><path class="cls-2" d="M468.46,276.42c-.07,2.65,2.94,6.29-2.32,7.29C466.51,281.15,466.54,278.48,468.46,276.42Z" transform="translate(-43.65 -34.83)"/><path class="cls-2" d="M465.1,295.48c1.76,3,1.27,3.58-3.65,4.15Z" transform="translate(-43.65 -34.83)"/><path class="cls-1" d="M452.12,333c.47,3.29-1,4.67-4.23,4.29A14.66,14.66,0,0,1,452.12,333Z" transform="translate(-43.65 -34.83)"/><path class="cls-2" d="M158.14,308.83c-.84-.28-2.46-.06-1.84-1.51.52-1.22,1.54-2.72,3.44-1.58A4.79,4.79,0,0,1,158.14,308.83Z" transform="translate(-43.65 -34.83)"/><path class="cls-2" d="M426.56,337.2c.32-1.23.58-2.78,2-2.94,1.22-.14,1,1.3,1.18,2.18Z" transform="translate(-43.65 -34.83)"/><path class="cls-2" d="M465.68,287.72a2.49,2.49,0,0,1,0,3.93C465.67,290.34,465.68,289,465.68,287.72Z" transform="translate(-43.65 -34.83)"/><path class="cls-3" d="M486.39,292.64c-1.2-1.23-1.18-2.26.48-3Z" transform="translate(-43.65 -34.83)"/><path class="cls-1" d="M475.19,340.87c-.62-.26-1.37-.66-1.06-1.36.47-1.1,1.64-.76,2.58-.81Z" transform="translate(-43.65 -34.83)"/><path class="cls-2" d="M434.56,324.73c-.68.95-1.6,1.25-2.45.41-.62-.61-.08-1.16.59-1.48Z" transform="translate(-43.65 -34.83)"/><path class="cls-3" d="M464.53,303.37a3.71,3.71,0,0,1-.18-.73c1.24-1,2.09-1,2.25.86Z" transform="translate(-43.65 -34.83)"/><path class="cls-1" d="M467.61,347.77c.1-1.67,1.05-2.14,2.56-1.79Z" transform="translate(-43.65 -34.83)"/><path class="cls-1" d="M176.38,206.7c-.61-.1-1.33-.16-1.4-.93s.65-.92,1.26-1.05Z" transform="translate(-43.65 -34.83)"/><path class="cls-2" d="M100.2,317.85c.11.76.64,1.82-.39,2.11-1.23.35-1-.89-1.18-1.6Z" transform="translate(-43.65 -34.83)"/><path class="cls-2" d="M93.74,329.06,73.58,344.57c-.64-1.21-1.17-2.36.27-3.47,5.7-4.38,11.4-8.77,17.05-13.23C92.74,326.43,93.49,327,93.74,329.06Z" transform="translate(-43.65 -34.83)"/><path class="cls-2" d="M100.81,324.76a12.58,12.58,0,0,1-5.17,3C95.71,323.9,97.66,323.29,100.81,324.76Z" transform="translate(-43.65 -34.83)"/><path class="cls-2" d="M122.3,320.55l3-4.56C127.14,319.38,126.15,320.91,122.3,320.55Z" transform="translate(-43.65 -34.83)"/><path class="cls-1" d="M218.15,279.53l1.14-6.76,1.3-.12c0,.69,0,1.38,0,2.07v3.93c-.32,3.25,1.87,3.12,4,3l0,0c-.33,1.1-.61,2.23-1,3.31-.74,2-2.1,2.93-4.23,2.08s-2-2.33-1.42-4.12C218.31,281.83,220,280.73,218.15,279.53Z" transform="translate(-43.65 -34.83)"/><path class="cls-3" d="M220.59,272.65l-1.3.12c0-1.38-.1-2.76-.14-4.14C221.28,269.38,220.36,271.22,220.59,272.65Z" transform="translate(-43.65 -34.83)"/><path class="cls-3" d="M220.61,278.65v-3.93C222,276,222,277.34,220.61,278.65Z" transform="translate(-43.65 -34.83)"/><path class="cls-3" d="M221.54,266.2l-.42.76c-.14-.25-.39-.49-.4-.75s.23-.5.37-.75Z" transform="translate(-43.65 -34.83)"/><path class="cls-4" d="M346.63,214.7c-8.28,5.31-17.78,7.11-27.16,8.86-26.67,5-53.54,4.3-80.06-.16-27.42-4.61-46-21.64-58.35-46.2-10.7-21.33-8.94-43-3.32-65.18,8.84-34.92,29.72-58.93,64.59-68.13,30.14-8,61-9.17,90.94,2.09,28.88,10.87,45.17,33.32,52.64,62.26,7.85,30.4,4.41,59.55-13.79,85.89-6.38,9.23-14.69,16.68-25.57,20.65.92-3.85,4.92-4.75,7.16-7.44,4.65-5.59,7.81-12.37,13.8-16.9,5.13-3.87,8-9.16,9.26-15.46,1.08-5.38,2.37-10.75,5.09-15.59,4.5-8,4.76-16,.83-24.34-2-4.23-3.47-8.71-2.92-13.49A28.78,28.78,0,0,0,378,108.33c-2.82-7.81-5.52-15.68-8.48-23.44a33.62,33.62,0,0,0-16.6-18.52,121.74,121.74,0,0,1-20.19-12.82c-8.1-6.34-17.13-10.68-27.63-9.37-13.43,1.67-26.9,1.72-40.35,1.56a45.56,45.56,0,0,0-22.4,5.57C234.42,55.52,226.62,60,218,62.72,207.82,66,201.61,73.21,198.4,83.13a78,78,0,0,1-9.21,19.3,37.89,37.89,0,0,0-6.4,26.1c1.29,10.93,2,21.85.15,32.8-.25,1.42.25,3,.38,4.45.71,8.71,6.78,15,10.13,22.55,2.53,5.7,6.93,9.38,13.21,10.08,11,1.24,18.18,8.77,26,15.33-9.57-1.11-17.5-6.85-26.44-9.78a60.52,60.52,0,0,0,24.48,11.93c1.74.38,3.2,1.12,3.91-1.24,7.15,3.77,14.6,5.6,22.53,2.92,10.45-3.53,20.4-2.31,30.66,1.46,10.84,4,21.89,3.78,32.17-2.55a16,16,0,0,1,9.41-2.82C335.12,214,340.87,214.35,346.63,214.7Zm-87.93,6.5c7,2.37,14.16,3.22,21.33.17C272.92,221.51,265.86,220.46,258.7,221.2Z" transform="translate(-43.65 -34.83)"/><path class="cls-3" d="M469.47,305.21l-.45.71c-.12-.25-.34-.51-.33-.76s.26-.47.4-.71C469.21,304.7,469.34,305,469.47,305.21Z" transform="translate(-43.65 -34.83)"/><path class="cls-3" d="M444.11,344.29c.07.13.2.26.19.38s-.17.23-.26.35C444.06,344.77,444.08,344.53,444.11,344.29Z" transform="translate(-43.65 -34.83)"/><path class="cls-1" d="M154.59,172.73c-1.31-.24-3,.62-3.74-1.24-.13-.33.2-1.21.4-1.24a2.66,2.66,0,0,1,3.37,2.46Z" transform="translate(-43.65 -34.83)"/><path class="cls-1" d="M409.57,287.68c-1.38,1.95-1.31,5.35-5,5C405.74,290.51,406.48,287.92,409.57,287.68Z" transform="translate(-43.65 -34.83)"/><path class="cls-1" d="M390.57,310.67c.12-2,1.37-3.06,3.67-4.1-.23,2.91-1.59,3.83-3.66,4.11Z" transform="translate(-43.65 -34.83)"/><path class="cls-1" d="M403.58,294.68a3,3,0,0,1-2,3C401.56,296.22,401.55,294.78,403.58,294.68Z" transform="translate(-43.65 -34.83)"/><path class="cls-1" d="M389.58,311.68a1.84,1.84,0,0,1-2,2h0a1.84,1.84,0,0,1,2-2Z" transform="translate(-43.65 -34.83)"/><path class="cls-1" d="M404.57,292.68a2,2,0,0,1-1,2A2,2,0,0,1,404.57,292.68Z" transform="translate(-43.65 -34.83)"/><path class="cls-1" d="M390.58,310.68l-1,1h0l1-1Z" transform="translate(-43.65 -34.83)"/><path class="cls-1" d="M106.61,318.67l1-.75c.33,1.2-.71.49-1,.75Z" transform="translate(-43.65 -34.83)"/><path class="cls-3" d="M346.63,214.7c-5.76-.35-11.51-.72-17.27-1a16,16,0,0,0-9.41,2.82c-10.28,6.33-21.33,6.53-32.17,2.55-10.26-3.77-20.21-5-30.66-1.46-7.93,2.68-15.38.85-22.53-2.92l.07.09a1.71,1.71,0,0,0-2.12-1.07l.1.07c-7.8-6.56-15-14.09-26-15.33-6.28-.7-10.68-4.38-13.21-10.08-3.35-7.53-9.42-13.84-10.13-22.55-.13-1.49-.63-3-.38-4.45,1.89-11,1.14-21.87-.15-32.8a37.89,37.89,0,0,1,6.4-26.1,78,78,0,0,0,9.21-19.3c3.21-9.92,9.42-17.15,19.6-20.41,8.62-2.76,16.42-7.2,24.36-11.41a45.56,45.56,0,0,1,22.4-5.57c13.45.16,26.92.11,40.35-1.56,10.5-1.31,19.53,3,27.63,9.37a121.74,121.74,0,0,0,20.19,12.82,33.62,33.62,0,0,1,16.6,18.52c3,7.76,5.66,15.63,8.48,23.44a28.78,28.78,0,0,1,1.76,13.23c-.55,4.78.91,9.26,2.92,13.49,3.93,8.3,3.67,16.33-.83,24.34-2.72,4.84-4,10.21-5.09,15.59-1.26,6.3-4.13,11.59-9.26,15.46-6,4.53-9.15,11.31-13.8,16.9-2.24,2.69-6.24,3.59-7.16,7.44Zm-100-161c-.93-1.19-1.84-.24-2.56.19A148,148,0,0,1,218.73,65.5c-9.17,3.33-15.37,9.7-17.9,19.34-2,7.68-6.08,14.37-10.23,21-2.67,4.28-5.07,8.79-4.94,13.94.38,15.11,1.76,30.21-.41,45.3a5,5,0,0,0,.1,1c.45,9.23,7,15.57,11,23.13,1.51,2.88,3.92,5.36,7.22,5.7,12.6,1.29,21.62,9.29,31.29,16.13a16.44,16.44,0,0,0,1.7,1c5.42,3,11.13,4.61,17.27,2.82a54.64,54.64,0,0,1,35.66,1.39c8,3,16.89,3.74,24.74-.85,7-4.08,13.9-6,21.86-4.25,7.45,1.63,12.61-1.66,16.45-7.94s8.39-12.35,14.36-17.08A16.31,16.31,0,0,0,372.76,176a74.73,74.73,0,0,1,6.89-20.22,19.56,19.56,0,0,0,.37-17.35,39.45,39.45,0,0,1-3.61-17A41.58,41.58,0,0,0,373.17,105c-2.16-5.59-4.48-11.12-6.26-16.83a31,31,0,0,0-17.19-19.74C342,64.89,335.4,60,328.67,55.13c-7.95-5.77-16.61-9-26.65-7.6a119.24,119.24,0,0,1-31.86.32c-7-.94-13.92.57-20.47,3.25-1.23.5-3.33.36-3.13,2.68Z" transform="translate(-43.65 -34.83)"/><path class="cls-3" d="M234.59,214.65c-.71,2.36-2.17,1.62-3.91,1.24A60.52,60.52,0,0,1,206.2,204c8.94,2.93,16.87,8.67,26.44,9.78l-.1-.07c.24,1.28,1.24,1.06,2.12,1.07Z" transform="translate(-43.65 -34.83)"/><path class="cls-3" d="M258.7,221.2c7.16-.74,14.22.31,21.33.17C272.86,224.42,265.74,223.57,258.7,221.2Z" transform="translate(-43.65 -34.83)"/><path class="cls-5" d="M246.56,53.78c-.2-2.32,1.9-2.18,3.13-2.68,6.55-2.68,13.43-4.19,20.47-3.25A119.24,119.24,0,0,0,302,47.53c10-1.36,18.7,1.83,26.65,7.6C335.4,60,342,64.89,349.72,68.39a31,31,0,0,1,17.19,19.74c1.78,5.71,4.1,11.24,6.26,16.83a41.58,41.58,0,0,1,3.24,16.53,39.45,39.45,0,0,0,3.61,17,19.56,19.56,0,0,1-.37,17.35A74.73,74.73,0,0,0,372.76,176a16.31,16.31,0,0,1-5.88,10.15c-6,4.73-10.44,10.69-14.36,17.08s-9,9.57-16.45,7.94c-8-1.74-14.91.17-21.86,4.25-7.85,4.59-16.75,3.85-24.74.85a54.64,54.64,0,0,0-35.66-1.39c-6.14,1.79-11.85.17-17.27-2.82a16.44,16.44,0,0,1-1.7-1c-9.67-6.84-18.69-14.84-31.29-16.13-3.3-.34-5.71-2.82-7.22-5.7-4-7.56-10.53-13.9-11-23.13a5,5,0,0,1-.1-1c2.17-15.09.79-30.19.41-45.3-.13-5.15,2.27-9.66,4.94-13.94,4.15-6.65,8.21-13.34,10.23-21,2.53-9.64,8.73-16,17.9-19.34A148,148,0,0,0,244.1,53.87c.72-.43,1.63-1.38,2.56-.19-6,9.17-15.88,12.12-25.38,15.78,7.23-.37,13.89-2.25,19.51-6.6,5.88-4.56,10.45-11.37,20.63-9.25-3.26-3.91-6-3.72-8.7-2.85A46.79,46.79,0,0,0,246.56,53.78Zm36.84,121a37.19,37.19,0,0,0,10.86-1c14.63-3.31,23.82-12.83,27.32-26.82,3.46-13.82-1.94-25.46-12.68-34.6-9-7.68-19.8-9.13-31.14-8.71-12,.45-22.8,4-31.49,12.65-17.11,16.93-12.75,42.69,8.86,53.14C263.76,173.6,273,174.5,283.4,174.8ZM236,122.75c-6.56,7.82-7.8,16.86-5.73,26.53,1.61,7.5,5.91,13.43,10.95,14.41C230.54,150.81,229.06,137.33,236,122.75Zm87.79,32c-5.57,9.07-12,17.24-22.36,21.22C313.12,174.82,323.08,164.44,323.79,154.72Zm29.6,38.18c-3.93,4.93-5.94,9.94-10.63,12.55a1,1,0,0,0-.18,1.65c.72.65,1.56.35,2.36.1C348.77,206,353.4,198.94,353.39,192.9Zm21.21-38.84c5.25-2.66,5.69-10,.9-15.19C376.77,143.94,375.12,148.85,374.6,154.06Zm-16,30.32c5.93-1.14,10.78-7.24,11-14.21C366.2,176,361.79,179.68,358.56,184.38ZM206,190.62c-5.87-1.24-6.24-8.2-10.76-10.68C197.51,184.9,198.61,191.08,206,190.62Zm121.5-59.25-1.28.16v11.39C328.65,138.7,328.81,135.07,327.47,131.37ZM352,107.62c1.11-.35,3.2-.15,2.52-1.5-1.17-2.33-4.18-1.91-6.42-2.59-1-.29-2.43.18-2.11,1.27C346.85,107.9,350,106.63,352,107.62Zm9.22,25.63c1.25.24,2.34-.13,2.11-1-.58-2.2-2.86-2.4-4.6-3.15-.79-.34-2-.15-1.91.76C357.09,132.59,359.89,132.21,361.18,133.25Zm-7.52-19.19c-1,.65-2.79.75-3.21,2.41-.34,1.34.88,1.69,1.9,1.58,1.51-.15,3-.6,3.23-2.45C355.68,114.66,354.87,114.22,353.66,114.06Zm-61,67.19a1.83,1.83,0,0,0-2.11-1.72c-1.65.06-3,.73-3,2.57a1.46,1.46,0,0,0,1.72,1.41C290.71,183.35,292.15,182.94,292.64,181.25ZM346.06,82.5c-1.63-1.56-2.7-3.94-5.55-3.75-.21,0-.63,1-.5,1.17C341.45,81.74,343.16,83.14,346.06,82.5ZM249.27,208.89l-9.3-.65C243,210.21,246,211.84,249.27,208.89Zm-23.21-88.17a1.29,1.29,0,0,0-1.85-1.06c-1.11.33-2.38.72-2.21,2.24a1.39,1.39,0,0,0,1.82,1.2A3,3,0,0,0,226.06,120.72Zm120.15,31.74c-2-.27-4.07-1.11-6.54,0C342.28,155.1,344.29,154.91,346.21,152.46Zm-71.64,50.47a3.17,3.17,0,0,0,2.53-2.59c.26-1-.32-1.75-1.25-1.49a3.34,3.34,0,0,0-2.76,2.45C272.93,202.22,273.56,202.79,274.57,202.93Zm76.94-57.53c.86-.8,3-.22,3.15-2.31.1-1.32-.82-1.71-2-1.53-1.52.24-3,.73-3.2,2.54C349.44,145,350.33,145.42,351.51,145.4ZM287.56,97.85c.41-2.13,4-1.86,3.35-4.59-.05-.22-1-.51-1.23-.35A4.33,4.33,0,0,0,287.56,97.85Z" transform="translate(-43.65 -34.83)"/><path class="cls-4" d="M234.66,214.74c-.88,0-1.88.21-2.12-1.07A1.71,1.71,0,0,1,234.66,214.74Z" transform="translate(-43.65 -34.83)"/><path class="cls-3" d="M283.4,174.8c-10.42-.3-19.64-1.2-28.27-5.37-21.61-10.45-26-36.21-8.86-53.14,8.69-8.6,19.45-12.2,31.49-12.65,11.34-.42,22.11,1,31.14,8.71,10.74,9.14,16.14,20.78,12.68,34.6-3.5,14-12.69,23.51-27.32,26.82A37.19,37.19,0,0,1,283.4,174.8Zm26.19-56.07q3.77,5.68,7.55,11.36c-1.25-4.64-2.57-9.23-7.57-11.33.81-1.74-.79-2.26-1.66-3a41,41,0,0,0-20-9.3c-16.32-3-35.47,4.41-44.51,18.1-8.09,12.23-6,28.55,4.89,36.81a5.14,5.14,0,0,0-.15-1.5,36.76,36.76,0,0,1,24.94-50.52C287,106,299,109.44,309.59,118.73Zm-61.21,26.48c-.55,9.87,4.57,17.47,14.26,21.88,11.42,5.21,23.3,6.29,35.33,2.18,9.79-3.35,17.41-14,17.73-24.35.6-19.09-13.79-33.8-33.26-34S248.22,125,248.38,145.21Z" transform="translate(-43.65 -34.83)"/><path class="cls-3" d="M236,122.75c-6.94,14.58-5.46,28.06,5.22,40.94-5-1-9.34-6.91-10.95-14.41C228.2,139.61,229.44,130.57,236,122.75Z" transform="translate(-43.65 -34.83)"/><path class="cls-3" d="M246.56,53.78a46.79,46.79,0,0,1,6.16-3c2.66-.87,5.44-1.06,8.7,2.85-10.18-2.12-14.75,4.69-20.63,9.25-5.62,4.35-12.28,6.23-19.51,6.6,9.5-3.66,19.42-6.61,25.38-15.78Z" transform="translate(-43.65 -34.83)"/><path class="cls-3" d="M323.79,154.72c-.71,9.72-10.67,20.1-22.36,21.22C311.81,172,318.22,163.79,323.79,154.72Z" transform="translate(-43.65 -34.83)"/><path class="cls-3" d="M353.39,192.9c0,6-4.62,13.11-8.45,14.3-.8.25-1.64.55-2.36-.1a1,1,0,0,1,.18-1.65C347.45,202.84,349.46,197.83,353.39,192.9Z" transform="translate(-43.65 -34.83)"/><path class="cls-3" d="M374.6,154.06c.52-5.21,2.17-10.12.9-15.19C380.29,144,379.85,151.4,374.6,154.06Z" transform="translate(-43.65 -34.83)"/><path class="cls-3" d="M358.56,184.38c3.23-4.7,7.64-8.34,11-14.21C369.34,177.14,364.49,183.24,358.56,184.38Z" transform="translate(-43.65 -34.83)"/><path class="cls-3" d="M206,190.62c-7.36.46-8.46-5.72-10.76-10.68C199.73,182.42,200.1,189.38,206,190.62Z" transform="translate(-43.65 -34.83)"/><path class="cls-3" d="M327.47,131.37c1.34,3.7,1.18,7.33-1.28,11.55V131.53Z" transform="translate(-43.65 -34.83)"/><path class="cls-3" d="M352,107.62c-2-1-5.11.28-6-2.82-.32-1.09,1.13-1.56,2.11-1.27,2.24.68,5.25.26,6.42,2.59C355.16,107.47,353.07,107.27,352,107.62Z" transform="translate(-43.65 -34.83)"/><path class="cls-3" d="M361.18,133.25c-1.29-1-4.09-.66-4.4-3.35-.1-.91,1.12-1.1,1.91-.76,1.74.75,4,1,4.6,3.15C363.52,133.12,362.43,133.49,361.18,133.25Z" transform="translate(-43.65 -34.83)"/><path class="cls-3" d="M353.66,114.06c1.21.16,2,.6,1.92,1.54-.18,1.85-1.72,2.3-3.23,2.45-1,.11-2.24-.24-1.9-1.58C350.87,114.81,352.66,114.71,353.66,114.06Z" transform="translate(-43.65 -34.83)"/><path class="cls-3" d="M292.64,181.25c-.49,1.69-1.93,2.1-3.44,2.26a1.46,1.46,0,0,1-1.72-1.41c0-1.84,1.4-2.51,3-2.57A1.83,1.83,0,0,1,292.64,181.25Z" transform="translate(-43.65 -34.83)"/><path class="cls-3" d="M346.06,82.5c-2.9.64-4.61-.76-6.05-2.58-.13-.17.29-1.15.5-1.17C343.36,78.56,344.43,80.94,346.06,82.5Z" transform="translate(-43.65 -34.83)"/><path class="cls-3" d="M249.27,208.89c-3.32,3-6.3,1.32-9.3-.65Z" transform="translate(-43.65 -34.83)"/><path class="cls-3" d="M226.06,120.72a3,3,0,0,1-2.24,2.38,1.39,1.39,0,0,1-1.82-1.2c-.17-1.52,1.1-1.91,2.21-2.24A1.29,1.29,0,0,1,226.06,120.72Z" transform="translate(-43.65 -34.83)"/><path class="cls-3" d="M346.21,152.46c-1.92,2.45-3.93,2.64-6.54,0C342.14,151.35,344.18,152.19,346.21,152.46Z" transform="translate(-43.65 -34.83)"/><path class="cls-3" d="M274.57,202.93c-1-.14-1.64-.71-1.48-1.63a3.34,3.34,0,0,1,2.76-2.45c.93-.26,1.51.51,1.25,1.49A3.17,3.17,0,0,1,274.57,202.93Z" transform="translate(-43.65 -34.83)"/><path class="cls-3" d="M351.51,145.4c-1.18,0-2.07-.42-2-1.3.16-1.81,1.68-2.3,3.2-2.54,1.13-.18,2.05.21,2,1.53C354.49,145.18,352.37,144.6,351.51,145.4Z" transform="translate(-43.65 -34.83)"/><path class="cls-3" d="M287.56,97.85a4.33,4.33,0,0,1,2.12-4.94c.25-.16,1.18.13,1.23.35C291.54,96,288,95.72,287.56,97.85Z" transform="translate(-43.65 -34.83)"/><path class="cls-4" d="M309.59,118.73C299,109.44,287,106,273.12,109.34a36.76,36.76,0,0,0-24.94,50.52,5.14,5.14,0,0,1,.15,1.5c-10.87-8.26-13-24.58-4.89-36.81,9-13.69,28.19-21.1,44.51-18.1a41,41,0,0,1,20,9.3c.87.75,2.47,1.27,1.66,3Z" transform="translate(-43.65 -34.83)"/><path class="cls-4" d="M309.57,118.76c5,2.1,6.32,6.69,7.57,11.33q-3.78-5.69-7.55-11.36Z" transform="translate(-43.65 -34.83)"/></g></svg>