<svg id="Layer_1" data-name="Layer 1" xmlns="http://www.w3.org/2000/svg" viewBox="0 0 300 186.98"><defs><style>.cls-1{fill:#f32735;}</style></defs><path class="cls-1" d="M137.76,148.6a6.29,6.29,0,0,0-6.36,6.49c-.06,3,1.81,4.78,5,4.78a6.3,6.3,0,0,0,6.37-6.49C142.8,150.39,140.93,148.6,137.76,148.6Z" transform="translate(-8.77 -7.26)"/><path class="cls-1" d="M126.55,150.12a.74.74,0,0,0-.55-.26h-7.94a.7.7,0,0,0-.69.57s-3.07,15.21-3.26,16.27c-2-3.52-5.91-5.68-10.76-5.68-9.66,0-16.68,7.77-16.68,18.48,0,8.82,5.3,14.74,13.19,14.74a12.63,12.63,0,0,0,9.59-4.27c-.16.76-.32,1.56-.49,2.48a.7.7,0,0,0,.15.57.72.72,0,0,0,.54.25h7.93a.72.72,0,0,0,.7-.57l8.42-42A.71.71,0,0,0,126.55,150.12ZM111.3,177.61a10.5,10.5,0,0,1-1.07,3.14,10,10,0,0,1-1.9,2.48,8.4,8.4,0,0,1-2.52,1.63,7.61,7.61,0,0,1-5.51.12,5.38,5.38,0,0,1-1.92-1.31,5.79,5.79,0,0,1-1.19-2.07,8,8,0,0,1-.32-2.78,10.4,10.4,0,0,1,.81-3.51,9.76,9.76,0,0,1,1.88-2.88,8.84,8.84,0,0,1,2.69-2,7.67,7.67,0,0,1,3.25-.71,6.42,6.42,0,0,1,2.72.56,5.39,5.39,0,0,1,2,1.57,5.93,5.93,0,0,1,1.09,2.44A9,9,0,0,1,111.3,177.61Z" transform="translate(-8.77 -7.26)"/><path class="cls-1" d="M139,164.44h-8.2a.72.72,0,0,0-.72.52l-5.55,27.53a.63.63,0,0,0,.15.54.78.78,0,0,0,.56.24h8.21a.72.72,0,0,0,.72-.53l5.55-27.53a.61.61,0,0,0-.16-.54A.74.74,0,0,0,139,164.44Z" transform="translate(-8.77 -7.26)"/><path class="cls-1" d="M19.6,190.77c.84-3.72,2.38-12,2.42-12.18l9.65.06c11.08,0,18-5.92,18-15.45,0-8.35-5.72-13.34-15.31-13.34H17.84a.71.71,0,0,0-.7.58L8.78,192.17a.74.74,0,0,0,.18.6.69.69,0,0,0,.55.26h3.26l4.09,0A2.82,2.82,0,0,0,19.6,190.77ZM32,169.61l-8.18,0c.05-.25,2.11-10.46,2.18-10.89.4,0,7.59.07,7.59.07,3.62,0,5.62,1.69,5.62,4.76C39.21,167.42,36.58,169.61,32,169.61Z" transform="translate(-8.77 -7.26)"/><path class="cls-1" d="M199.81,161c-10.78,0-18.61,7.69-18.61,18.29,0,9.07,6.21,14.93,15.83,14.93,10.79,0,18.62-7.69,18.62-18.29C215.65,166.88,209.43,161,199.81,161Zm-2.15,23.85c-4.08,0-6.51-2.3-6.51-6.15,0-4.83,3.38-8.33,8-8.33,4.08,0,6.51,2.29,6.51,6.14C205.69,181.36,202.32,184.87,197.66,184.87Z" transform="translate(-8.77 -7.26)"/><path class="cls-1" d="M182.37,150.12a.7.7,0,0,0-.54-.26h-8a.7.7,0,0,0-.69.57s-3.07,15.21-3.26,16.27c-2-3.52-5.9-5.68-10.76-5.68-9.66,0-16.67,7.77-16.67,18.48,0,8.82,5.3,14.74,13.18,14.74a12.67,12.67,0,0,0,9.6-4.27c-.17.76-.32,1.56-.5,2.48a.67.67,0,0,0,.16.57.69.69,0,0,0,.54.25h7.93a.71.71,0,0,0,.69-.57l8.42-42A.68.68,0,0,0,182.37,150.12Zm-15.11,27.49a10.24,10.24,0,0,1-1.08,3.14,9.75,9.75,0,0,1-1.89,2.48,8.52,8.52,0,0,1-2.52,1.63,7.64,7.64,0,0,1-5.52.12,5.43,5.43,0,0,1-1.91-1.31,5.51,5.51,0,0,1-1.19-2.07,7.74,7.74,0,0,1-.32-2.78,10.17,10.17,0,0,1,.81-3.51,9.93,9.93,0,0,1,1.87-2.88,9,9,0,0,1,2.7-2,7.67,7.67,0,0,1,3.25-.71,6.45,6.45,0,0,1,2.72.56,5.36,5.36,0,0,1,2,1.57,5.8,5.8,0,0,1,1.09,2.44A8.73,8.73,0,0,1,167.26,177.61Z" transform="translate(-8.77 -7.26)"/><path class="cls-1" d="M241.85,163.43a24.72,24.72,0,0,0-12.29-2.37c-6.82.6-10.74,4.67-10.21,10.62.31,3.6,2.37,6.35,6.28,8.43l4.32,2.26c1.77.94,1.93,1.38,2,1.94.11,1.29-1.36,1.61-2.24,1.69-2.71.24-6-.79-9.51-3a.71.71,0,0,0-.55-.08.65.65,0,0,0-.43.33l-3.46,6.11a.7.7,0,0,0,.21.92,21.77,21.77,0,0,0,14.32,3.8c7.6-.66,11.64-4.68,11.08-11-.33-3.83-2.17-6.25-6.35-8.36l-3.89-2c-2.28-1.25-2.4-1.57-2.46-2.17,0-.33-.12-1.35,2.07-1.54a16,16,0,0,1,7.79,1.8.68.68,0,0,0,.54,0,.67.67,0,0,0,.4-.37l2.75-6.17A.7.7,0,0,0,241.85,163.43Z" transform="translate(-8.77 -7.26)"/><path class="cls-1" d="M284.77,150a.79.79,0,0,0-.69-.42H272.86a.77.77,0,0,0-.64.34s-11.14,15.81-11.92,17.32c-.21-1.43-5.69-17.08-5.69-17.08a.75.75,0,0,0-.73-.55h-9.82a.77.77,0,0,0-.73,1L253.75,177l-3.13,15.33a.76.76,0,0,0,.17.63.74.74,0,0,0,.59.28h7.94a2.18,2.18,0,0,0,2.14-1.76l2.78-14.22,20.46-26.47A.77.77,0,0,0,284.77,150Z" transform="translate(-8.77 -7.26)"/><path class="cls-1" d="M308.62,162a.69.69,0,0,0-.53-.25h-7.74a.69.69,0,0,0-.68.55s-.29,1.48-.48,2.51v0a10.31,10.31,0,0,0-7.19-3.59,17,17,0,0,0-7.19,1.13A19.75,19.75,0,0,0,272.19,181c.08,7.14,4.74,11.94,11.86,12.27a14,14,0,0,0,10.18-3.54c-.16.77-.36,1.77-.49,2.46a.69.69,0,0,0,.67.81h7.73a.7.7,0,0,0,.68-.55l5.94-29.87A.67.67,0,0,0,308.62,162Zm-12,15.38a9.62,9.62,0,0,1-1,3,9.48,9.48,0,0,1-1.81,2.37,7.91,7.91,0,0,1-2.4,1.55,7.28,7.28,0,0,1-5.27.12,5.06,5.06,0,0,1-1.82-1.25,5.18,5.18,0,0,1-1.14-2,7.49,7.49,0,0,1-.31-2.65,10,10,0,0,1,.78-3.35,9.27,9.27,0,0,1,1.79-2.75,8.34,8.34,0,0,1,2.57-1.86,7.3,7.3,0,0,1,3.1-.68,6.08,6.08,0,0,1,2.6.54,5.12,5.12,0,0,1,1.89,1.49,5.63,5.63,0,0,1,1,2.34A8.16,8.16,0,0,1,296.63,177.38Z" transform="translate(-8.77 -7.26)"/><path class="cls-1" d="M68.61,161c-10.6,0-18.3,7.72-18.3,18.35,0,9.17,6.17,14.87,16.1,14.87a20.66,20.66,0,0,0,12.13-3.77.69.69,0,0,0,.12-1.05l-4.88-5a.68.68,0,0,0-.81-.12,13,13,0,0,1-6.37,1.65c-4.55,0-7.19-2.08-7.24-5.7l22.24-.07a.71.71,0,0,0,.69-.55,25.57,25.57,0,0,0,.79-5.65C83.08,165.94,77.54,161,68.61,161Zm-8.26,12.3A8.06,8.06,0,0,1,68.42,168c4,0,6,1.83,6.15,5.37Z" transform="translate(-8.77 -7.26)"/><path class="cls-1" d="M183.16,7.32h-1.27l-5.74-.06H110.1a1.89,1.89,0,0,0-1.89,1.89V19.62c0,11.49,8.1,17.82,22.82,17.82l52.13.09a10,10,0,0,1,0,20H124.7a1.86,1.86,0,0,0-1.8,1.4l-13.83,54.63a1.87,1.87,0,0,0,.33,1.6,1.89,1.89,0,0,0,1.47.72h18.54c6.94,0,10.28-5.77,11.06-8.79l5.46-19.86h37.23a39.94,39.94,0,1,0,0-79.87Z" transform="translate(-8.77 -7.26)"/></svg>